<svg id="visual" viewBox="0 0 1920 1080" width="1920" height="1080" xmlns="http://www.w3.org/2000/svg" xmlns:xlink="http://www.w3.org/1999/xlink" version="1.1"><path d="M1314 1080L1355.2 1035C1396.3 990 1478.7 900 1526.5 810C1574.3 720 1587.7 630 1550.3 540C1513 450 1425 360 1379.2 270C1333.3 180 1329.7 90 1327.8 45L1326 0L1920 0L1920 45C1920 90 1920 180 1920 270C1920 360 1920 450 1920 540C1920 630 1920 720 1920 810C1920 900 1920 990 1920 1035L1920 1080Z" fill="#6861fe" stroke-linecap="round" stroke-linejoin="miter"></path></svg>